# xmcd CD database file
#
# Track frame offsets:
#	150
#	9053
#	27774
#	40976
#	58032
#	71474
#	85030
#	100083
#	114302
#	128179
#	140725
#	156373
#	166296
#
# Disc length: 2362 seconds
#
# Revision: 3
# Processed by: cddbd v1.5.2PL0 Copyright (c) Steve Scherf et al.
# Submitted via: CDex 1.83
#
DISCID=9f09380d
DTITLE=Lee Kernaghan - Driving Home for Christmas
DYEAR=2014
DGENRE=Christmas
TTITLE0=Jingle Bell Rock
TTITLE1=Driving Home for Christmas
TTITLE2=Santa Claus Is Back in Town
TTITLE3=O' Christmas Bush
TTITLE4=I'll be Home for Christmas
TTITLE5=Merry Merry Christmas
TTITLE6=Mary's Boy Child
TTITLE7=It Still Feels Like Christmas Time to Me
TTITLE8=Cunnamulla Santa
TTITLE9=O' Little Town of Bethlehem
TTITLE10=Christmas Waltz
TTITLE11=We Wish You a Merry Christmas
TTITLE12=Three Drovers
EXTD=YEAR: 2014
EXTT0=
EXTT1=
EXTT2=
EXTT3=
EXTT4=
EXTT5=
EXTT6=
EXTT7=
EXTT8=
EXTT9=
EXTT10=
EXTT11=
EXTT12=
PLAYORDER=
